<svg xmlns="http://www.w3.org/2000/svg" xml:space="preserve" style="enable-background:new 0 0 136.22 135.85" viewBox="0 0 136.22 135.85"><style>.st2{fill:none;stroke:#000;stroke-width:.5;stroke-miterlimit:10}.st3{fill:#ff3fa0}.st4{fill:none;stroke:#ff3fa0;stroke-miterlimit:10}</style><g id="Layer_2"><path d="M100.29 206.29c-.35 0-.69 0-1.04.07v-1.91c0-2.77-2.25-5.02-5.02-5.02H37.05c-2.77 0-5.02 2.25-5.02 5.02v33.13c0 8.07 6.55 14.62 14.62 14.62h37.98c6.65 0 12.27-4.47 14.03-10.53.52.07 1.08.1 1.63.1 8.21 0 14.9-7.93 14.9-17.74 0-9.77-6.69-17.74-14.9-17.74zm-1.04 26.82v-18.13c3.95.32 7.1 4.23 7.1 9.05s-3.15 8.77-7.1 9.08zM108.58 254.4H21.9c-.48 0-.88.4-.88.88 0 5.45 4.46 9.91 9.91 9.91h68.61c5.45 0 9.91-4.46 9.91-9.91a.867.867 0 0 0-.87-.88zM46.33 188.62c.98 5.62 6.2 8.2 6.79 8.47.47.22.96.32 1.44.32 1.29 0 2.52-.73 3.11-1.97.82-1.71.08-3.76-1.62-4.59-.03-.01-2.59-1.32-2.94-3.45-.3-1.85 1.07-4.4 3.8-7.11 4.41-4.09 6.35-9.39 5.31-14.52-1.01-4.96-4.6-9.01-9.63-10.83-1.78-.65-3.77.28-4.42 2.07-.65 1.79.28 3.77 2.07 4.42 2.74.99 4.69 3.13 5.22 5.71.56 2.76-.59 5.63-3.32 8.17-4.6 4.57-6.55 9.05-5.81 13.31zM68.13 188.62c.98 5.62 6.2 8.2 6.79 8.47.47.22.96.32 1.44.32 1.29 0 2.52-.73 3.11-1.97.82-1.71.08-3.76-1.62-4.59-.03-.01-2.59-1.32-2.94-3.45-.3-1.85 1.07-4.4 3.8-7.11 4.41-4.09 6.35-9.39 5.31-14.52-1.01-4.96-4.6-9.01-9.63-10.83-1.78-.65-3.77.28-4.42 2.07-.65 1.79.28 3.77 2.07 4.42 2.74.99 4.69 3.13 5.22 5.71.56 2.76-.59 5.63-3.32 8.17-4.6 4.57-6.55 9.05-5.81 13.31zM68.11 289.24c-27.34 0-49.5 17.58-49.5 39.28 0 10.45 5.17 19.91 13.56 26.95 2.16 1.81 3.42 4.53 3.1 7.33-.82 7.14-7.9 12.75-10.95 14.93-.49.35-.03 1.1.57 1.06 12.08-.7 23.14-6.61 26.67-11.65.58-.82 1.59-1.18 2.57-.95 4.43 1.04 9.12 1.62 13.98 1.62 27.34 0 49.5-17.58 49.5-39.28 0-21.71-22.16-39.29-49.5-39.29zm1.58 67.27H65.9c-1.9 0-3.73-1.31-4.11-3.09 0 0 .83-6.19 3.42-6.19h5.16c2.59 0 3.42 6.19 3.42 6.19-.36 1.79-2.19 3.09-4.1 3.09zm2.88-14.19c-.06.71-.94 1.26-2.01 1.26h-5.53c-1.07 0-1.95-.55-2.01-1.26l-3.3-40.82c-.12-1.44 1.92-2.65 4.48-2.65h7.19c2.56 0 4.6 1.2 4.48 2.65l-3.3 40.82zM566.49 104.47H543.6c-.71 0-1.3.58-1.3 1.3v5.04c0 .71.58 1.3 1.3 1.3h22.89c.71 0 1.3-.58 1.3-1.3v-5.04c0-.72-.58-1.3-1.3-1.3zM567.91 93.13h-25.74c-.71 0-1.3.58-1.3 1.3v6.54c0 .71.58 1.3 1.3 1.3h25.74c.71 0 1.3-.58 1.3-1.3v-6.54c0-.72-.58-1.3-1.3-1.3z" class="st3"/><path d="M551.36 13.03c-14.6 1.61-26.11 12.66-28.25 27.19-1.48 10.04 1.68 19.36 7.65 26.16 5.64 6.42 8.55 14.79 8.55 23.33v.21c0 .14.12.26.26.26h30.09c.14 0 .26-.12.26-.26v-.31c0-8.52 3.4-16.59 9.1-22.92 5.16-5.72 8.3-13.28 8.3-21.59.01-19.03-16.48-34.22-35.96-32.07z" class="st4"/><path d="M545.9 114.3a9.15 9.15 0 0 0 18.3.02c0-.01 0-.02-.01-.01-.04.03-18.21.04-18.29-.01zM408.99 195.75h4.76c.73 0 1.33-.6 1.33-1.33v-16.1c0-.73-.6-1.33-1.33-1.33h-4.76c-.73 0-1.33.6-1.33 1.33v16.1c0 .73.6 1.33 1.33 1.33zM382.63 239.84c0 13.73 9.8 24.96 21.77 24.96h14.2c11.98 0 21.77-11.23 21.77-24.96V215.3h-57.74v24.54zM423.28 165.86h-7.84v7.54c1.21.7 2.06 1.97 2.06 3.47v18.87c0 1.5-.85 2.76-2.06 3.47v10.93h24.69c-2.19-8.09-1.09-16.61 1.07-24.72l.1-.36c.17-.62.26-1.26.22-1.9-.51-9.61-8.52-17.3-18.24-17.3zM382.85 210l24.7.13V199.2c-1.21-.7-2.06-1.97-2.06-3.47v-18.87c0-1.5.85-2.76 2.06-3.47v-7.54h-7.84c-9.72 0-17.73 7.69-18.23 17.29-.03.64.06 1.28.22 1.9l.1.36c2.16 8.12 3.24 16.52 1.05 24.6zM551.1 159.93c-5.3 0-9.6 4.3-9.6 9.6s4.3 15.02 9.6 15.02 9.6-9.72 9.6-15.02c0-5.3-4.29-9.6-9.6-9.6zm-1.68 17.16c-.85 1.18-3.69.58-4.87-.27a2.636 2.636 0 0 1-.6-3.67 2.636 2.636 0 0 1 3.67-.6c1.17.85 2.64 3.36 1.8 4.54zm8.14-.27c-1.18.85-4.02 1.45-4.87.27-.85-1.18.62-3.68 1.8-4.53 1.18-.85 2.82-.58 3.67.6s.58 2.81-.6 3.66z" class="st3"/><path d="M551.1 154.2c-19.14 0-34.9 14.57-36.75 33.24h73.5c-1.85-18.67-17.61-33.24-36.75-33.24z" class="st4"/><path d="M521.14 220.45a1.34 1.34 0 0 0-1.89 0l-21.11 21.11c-.17.17-.17.45 0 .63l1.89 1.89c.17.17.45.17.63 0l21.11-21.11c.52-.52.52-1.37 0-1.89l-.63-.63zM582.87 220.45a1.34 1.34 0 0 0-1.89 0l-.63.63a1.34 1.34 0 0 0 0 1.89l21.11 21.11c.17.17.45.17.63 0l1.89-1.89c.17-.17.17-.45 0-.63l-21.11-21.11zM551.53 227.97h-.89c-.74 0-1.34.6-1.34 1.34v34.95c0 .24.2.44.44.44h2.68c.24 0 .44-.2.44-.44v-34.95c.01-.74-.6-1.34-1.33-1.34zM608.93 190.99H493.17c-.75 0-1.36.76-1.36 1.69v5.34c0 3.43 2.27 6.24 5.04 6.24h19.72l.01.13c3.01 6.79 8.96 16.2 15.25 16.2l40.45-.11c2.28 0 10.38-6.58 13.24-16.09l.03-.13h19.7c2.77 0 5.04-2.81 5.04-6.24v-5.34c.01-.94-.61-1.69-1.36-1.69zm-78.53 12.42a3.44 3.44 0 1 1 0-6.88 3.44 3.44 0 0 1 0 6.88zm20.65 8.64a3.44 3.44 0 1 1 0-6.88 3.44 3.44 0 0 1 0 6.88zm20.46-8.64a3.44 3.44 0 1 1 0-6.88 3.44 3.44 0 0 1 0 6.88z" class="st3"/><path d="M14.25 67.92c11.25 19.01 31.85 30.8 53.86 30.8 22 0 42.61-11.8 53.85-30.8-11.24-19.01-31.85-30.8-53.85-30.8s-42.61 11.8-53.86 30.8z" class="st4"/><path d="m13.09 67.92.15.25c11.39 19.46 32.42 31.55 54.87 31.55 22.45 0 43.48-12.09 54.87-31.55l.15-.25-.15-.25c-11.39-19.46-32.41-31.55-54.87-31.55-22.45 0-43.48 12.09-54.87 31.55l-.15.25z" class="st4"/><path d="M64.84 91.41c12.97 1.81 24.95-7.25 26.76-20.22.81-5.81-.56-11.42-3.49-16.01-.84-1.32-11.59 12.99-16.15 9.14-5.12-4.33 10.98-14.98 9.68-15.88a23.632 23.632 0 0 0-10.27-4.01c-12.97-1.81-24.95 7.25-26.76 20.22-1.8 12.98 7.26 24.96 20.23 26.76zM286.64 357.61c-1.64 0-3.27.45-4.73 1.38-2.1 1.34-3.56 3.42-4.11 5.85s-.1 4.93 1.23 7.04c1.6 2.52.34 7.08-.68 10.74-.51 1.84-1.21 4.37-.81 4.72.03.03.2.06.62-.11 3.57-1.42 15.78-9.49 18.07-17.85.76-2.78.29-5.29-1.4-7.48-2.16-2.79-5.19-4.29-8.19-4.29zM286.05 341.8c.32.49.82.81 1.4.91l7.75 1.29a2.1 2.1 0 0 0 1.55-.36c.45-.32.75-.8.84-1.35l5.33-39.87c.04-.25.07-.5.07-.74 0-2.21-1.65-4.11-3.83-4.42a4.44 4.44 0 0 0-4.97 3.34l-8.41 39.54c-.15.6-.05 1.18.27 1.66zM286.08 354.01l6.86 1.21c.51.09 1-.21 1.16-.7l1.65-5.1c.11-.33.07-.68-.11-.98-.18-.29-.47-.5-.81-.56l-8.01-1.42c-.07-.01-.14-.02-.21-.02-.27 0-.53.09-.75.26-.27.22-.43.54-.44.88l-.2 5.35c-.01.54.36.99.86 1.08z" class="st3"/><path d="M322.27 372.51c-13.47 4.1-18.95-2.95-16.6-9.86 1.01-2.98 6.9-6.99 9.84-14.68 2.12-5.56-.16-21.67-13.38-31.64l-3.51 26.25c-.13.82-.58 1.53-1.25 2.01a3.059 3.059 0 0 1-2.29.54l-7.75-1.29c-.85-.14-1.6-.63-2.07-1.35-.47-.72-.62-1.58-.41-2.42l6.26-29.46a46.62 46.62 0 0 0-7.36-1.8c-26.96-4.37-60.79 25.36-55.02 61.24 4.32 26.88 22.79 42.61 45.51 47.28 20.68 4.25 46.6-4.45 57.52-32.51.6-1.26.93-2.63.93-4.09v-.13c-.06-5.25-5.39-9.61-10.42-8.09zm-37.84-24.94c.02-.63.32-1.22.81-1.62s1.13-.56 1.76-.45l8.01 1.42c.62.11 1.17.48 1.49 1.03.33.54.4 1.2.21 1.8l-1.65 5.1a2.042 2.042 0 0 1-2.29 1.37l-6.86-1.21a2.056 2.056 0 0 1-1.68-2.07l.2-5.37zm-14.36-26.7c4.64 0 8.41 3.76 8.41 8.41s-3.76 8.41-8.41 8.41c-4.64 0-8.41-3.76-8.41-8.41s3.76-8.41 8.41-8.41zm-26.3 50.52c-4.64 0-8.41-3.76-8.41-8.41s3.76-8.41 8.41-8.41c4.64 0 8.41 3.76 8.41 8.41s-3.76 8.41-8.41 8.41zm9.42 18.64a8.41 8.41 0 0 1-8.41-8.41 8.41 8.41 0 0 1 8.41-8.41 8.41 8.41 0 1 1 0 16.82zm0-37.25a8.41 8.41 0 0 1-8.41-8.41 8.41 8.41 0 0 1 8.41-8.41 8.41 8.41 0 0 1 8.41 8.41 8.41 8.41 0 0 1-8.41 8.41zm16.88 54.27a8.41 8.41 0 0 1-8.41-8.41 8.41 8.41 0 0 1 8.41-8.41 8.41 8.41 0 0 1 8.41 8.41c-.01 4.64-3.77 8.41-8.41 8.41zm27.12-37.41c-2.38 8.69-14.98 17.05-18.66 18.52-.33.13-.63.2-.89.2-.31 0-.56-.09-.77-.28-.82-.74-.39-2.47.52-5.74.96-3.47 2.16-7.79.8-9.93-1.48-2.33-1.97-5.1-1.37-7.79s2.21-5 4.55-6.48c4.59-2.92 10.58-1.6 14.24 3.14 1.9 2.46 2.43 5.27 1.58 8.36z" class="st3"/></g></svg>