<svg xmlns="http://www.w3.org/2000/svg" xml:space="preserve" id="Layer_1" x="0" y="0" style="enable-background:new 0 0 136.2 135.9" version="1.1" viewBox="0 0 136.2 135.9"><style>.st2{fill:none;stroke:#000;stroke-width:.5;stroke-miterlimit:10}.st3{fill:#ff3fa0}.st5{fill:none;stroke:#ff3fa0;stroke-miterlimit:10}</style><path d="M100.3 206.3c-.3 0-.7 0-1 .1v-1.9c0-2.8-2.2-5-5-5H37c-2.8 0-5 2.2-5 5v33.1c0 8.1 6.5 14.6 14.6 14.6h38c6.7 0 12.3-4.5 14-10.5.5.1 1.1.1 1.6.1 8.2 0 14.9-7.9 14.9-17.7.1-9.8-6.6-17.8-14.8-17.8zm-1.1 26.8V215c3.9.3 7.1 4.2 7.1 9.1s-3.1 8.7-7.1 9zM108.6 254.4H21.9c-.5 0-.9.4-.9.9 0 5.5 4.5 9.9 9.9 9.9h68.6c5.4 0 9.9-4.5 9.9-9.9.1-.5-.3-.9-.8-.9zM46.3 188.6c1 5.6 6.2 8.2 6.8 8.5.5.2 1 .3 1.4.3 1.3 0 2.5-.7 3.1-2 .8-1.7.1-3.8-1.6-4.6 0 0-2.6-1.3-2.9-3.4-.3-1.9 1.1-4.4 3.8-7.1 4.4-4.1 6.3-9.4 5.3-14.5-1-5-4.6-9-9.6-10.8-1.8-.6-3.8.3-4.4 2.1-.7 1.8.3 3.8 2.1 4.4 2.7 1 4.7 3.1 5.2 5.7.6 2.8-.6 5.6-3.3 8.2-4.7 4.5-6.6 9-5.9 13.2zM68.1 188.6c1 5.6 6.2 8.2 6.8 8.5.5.2 1 .3 1.4.3 1.3 0 2.5-.7 3.1-2 .8-1.7.1-3.8-1.6-4.6 0 0-2.6-1.3-2.9-3.4-.3-1.9 1.1-4.4 3.8-7.1 4.4-4.1 6.3-9.4 5.3-14.5-1-5-4.6-9-9.6-10.8-1.8-.6-3.8.3-4.4 2.1-.7 1.8.3 3.8 2.1 4.4 2.7 1 4.7 3.1 5.2 5.7.6 2.8-.6 5.6-3.3 8.2-4.7 4.5-6.6 9-5.9 13.2zM68.1 289.2c-27.3 0-49.5 17.6-49.5 39.3 0 10.5 5.2 19.9 13.6 27 2.2 1.8 3.4 4.5 3.1 7.3-.8 7.1-7.9 12.8-11 14.9-.5.4 0 1.1.6 1.1 12.1-.7 23.1-6.6 26.7-11.6.6-.8 1.6-1.2 2.6-1 4.4 1 9.1 1.6 14 1.6 27.3 0 49.5-17.6 49.5-39.3-.1-21.7-22.3-39.3-49.6-39.3zm1.6 67.3h-3.8c-1.9 0-3.7-1.3-4.1-3.1 0 0 .8-6.2 3.4-6.2h5.2c2.6 0 3.4 6.2 3.4 6.2-.4 1.8-2.2 3.1-4.1 3.1zm2.9-14.2c-.1.7-.9 1.3-2 1.3H65c-1.1 0-2-.5-2-1.3l-3.3-40.8c-.1-1.4 1.9-2.6 4.5-2.6h7.2c2.6 0 4.6 1.2 4.5 2.6l-3.3 40.8zM79.6 104.2H56.7c-.7 0-1.3.6-1.3 1.3v5c0 .7.6 1.3 1.3 1.3h22.9c.7 0 1.3-.6 1.3-1.3v-5c-.1-.7-.6-1.3-1.3-1.3zM81 92.9H55.2c-.7 0-1.3.6-1.3 1.3v6.5c0 .7.6 1.3 1.3 1.3H81c.7 0 1.3-.6 1.3-1.3v-6.5c0-.7-.6-1.3-1.3-1.3z" class="st3"/><path d="M64.4 12.8C49.8 14.4 38.3 25.5 36.2 40c-1.5 10 1.7 19.4 7.7 26.2 5.6 6.4 8.5 14.8 8.5 23.3v.2c0 .1.1.3.3.3h30.1c.1 0 .3-.1.3-.3v-.3c0-8.5 3.4-16.6 9.1-22.9 5.2-5.7 8.3-13.3 8.3-21.6-.1-19-16.6-34.2-36.1-32.1z" style="fill:none;stroke:#ff3fa0;stroke-width:2;stroke-miterlimit:10"/><path d="M59 114.1c0 5.1 4.1 9.2 9.2 9.2s9.1-4.1 9.2-9.1c-.2-.1-18.4-.1-18.4-.1zM65.6-169.2h4.8c.7 0 1.3-.6 1.3-1.3v-16.1c0-.7-.6-1.3-1.3-1.3h-4.8c-.7 0-1.3.6-1.3 1.3v16.1c0 .7.6 1.3 1.3 1.3zM39.2-125.1c0 13.7 9.8 25 21.8 25h14.1c12 0 21.8-11.2 21.8-25v-24.5H39.2v24.5zM79.9-199.1h-7.8v7.5c1.2.7 2.1 2 2.1 3.5v18.9c0 1.5-.8 2.8-2.1 3.5v10.9h24.7c-2.2-8.1-1.1-16.6 1.1-24.7l.1-.4c.2-.6.3-1.3.2-1.9-.6-9.6-8.6-17.3-18.3-17.3zM39.5-155l24.7.1v-10.9c-1.2-.7-2.1-2-2.1-3.5v-18.9c0-1.5.8-2.8 2.1-3.5v-7.5h-7.8c-9.7 0-17.7 7.7-18.2 17.3 0 .6.1 1.3.2 1.9l.1.4c2.1 8.2 3.2 16.5 1 24.6zM551.1 159.9c-5.3 0-9.6 4.3-9.6 9.6s4.3 15 9.6 15 9.6-9.7 9.6-15c0-5.3-4.3-9.6-9.6-9.6zm-1.7 17.2c-.8 1.2-3.7.6-4.9-.3s-1.4-2.5-.6-3.7c.8-1.2 2.5-1.4 3.7-.6 1.2.9 2.7 3.4 1.8 4.6zm8.2-.3c-1.2.9-4 1.4-4.9.3s.6-3.7 1.8-4.5 2.8-.6 3.7.6.5 2.8-.6 3.6z" class="st3"/><path d="M551.1 154.2c-19.1 0-34.9 14.6-36.8 33.2h73.5c-1.8-18.6-17.6-33.2-36.7-33.2z" class="st5"/><path d="M521.1 220.4c-.5-.5-1.4-.5-1.9 0l-21.1 21.1c-.2.2-.2.4 0 .6l1.9 1.9c.2.2.5.2.6 0l21.1-21.1c.5-.5.5-1.4 0-1.9l-.6-.6zM582.9 220.4c-.5-.5-1.4-.5-1.9 0l-.6.6c-.5.5-.5 1.4 0 1.9l21.1 21.1c.2.2.5.2.6 0l1.9-1.9c.2-.2.2-.4 0-.6l-21.1-21.1zM551.5 228h-.9c-.7 0-1.3.6-1.3 1.3v35c0 .2.2.4.4.4h2.7c.2 0 .4-.2.4-.4v-34.9c.1-.8-.5-1.4-1.3-1.4zM608.9 191H493.2c-.8 0-1.4.8-1.4 1.7v5.3c0 3.4 2.3 6.2 5 6.2h19.7v.1c3 6.8 9 16.2 15.2 16.2l40.5-.1c2.3 0 10.4-6.6 13.2-16.1v-.1h19.7c2.8 0 5-2.8 5-6.2v-5.3c.2-1-.4-1.7-1.2-1.7zm-78.5 12.4c-1.9 0-3.4-1.5-3.4-3.4s1.5-3.4 3.4-3.4 3.4 1.5 3.4 3.4-1.5 3.4-3.4 3.4zm20.6 8.7c-1.9 0-3.4-1.5-3.4-3.4s1.5-3.4 3.4-3.4 3.4 1.5 3.4 3.4-1.4 3.4-3.4 3.4zm20.5-8.7c-1.9 0-3.4-1.5-3.4-3.4s1.5-3.4 3.4-3.4 3.4 1.5 3.4 3.4c.1 1.9-1.5 3.4-3.4 3.4z" class="st3"/><path d="M14.2-44C25.4-25 46-13.2 68.1-13.2c22 0 42.6-11.8 53.8-30.8-11.2-19-31.8-30.8-53.8-30.8S25.5-63 14.2-44z" class="st5"/><path d="m13.1-44 .1.2c11.4 19.5 32.4 31.5 54.9 31.5s43.5-12.1 54.9-31.5l.2-.2-.2-.2c-11.4-19.5-32.4-31.5-54.9-31.5s-43.5 12-54.9 31.5l-.1.2z" class="st5"/><path d="M64.8-20.5c13 1.8 24.9-7.2 26.8-20.2.8-5.8-.6-11.4-3.5-16-.8-1.3-11.6 13-16.2 9.1-5.1-4.3 11-15 9.7-15.9-3-2.1-6.4-3.5-10.3-4-13-1.8-25 7.2-26.8 20.2-1.7 13 7.4 25 20.3 26.8zM74.4-285.6c-1.6 0-3.3.5-4.7 1.4-2.1 1.3-3.6 3.4-4.1 5.9s-.1 4.9 1.2 7c1.6 2.5.3 7.1-.7 10.7-.5 1.8-1.2 4.4-.8 4.7 0 0 .2.1.6-.1 3.6-1.4 15.8-9.5 18.1-17.8.8-2.8.3-5.3-1.4-7.5-2.2-2.8-5.3-4.3-8.2-4.3zM73.8-301.4c.3.5.8.8 1.4.9l7.8 1.3c.5.1 1.1 0 1.6-.4.4-.3.8-.8.8-1.4l5.3-39.9c0-.2.1-.5.1-.7 0-2.2-1.7-4.1-3.8-4.4h-.7c-2 0-3.8 1.4-4.3 3.4l-8.4 39.5c-.3.6-.2 1.2.2 1.7zM73.8-289.2l6.9 1.2c.5.1 1-.2 1.2-.7l1.7-5.1c.1-.3.1-.7-.1-1-.2-.3-.5-.5-.8-.6l-8-1.4h-.2c-.3 0-.5.1-.8.3-.3.2-.4.5-.4.9l-.2 5.4c-.2.5.2.9.7 1z" class="st3"/><path d="M110-270.7c-13.5 4.1-19-3-16.6-9.9 1-3 6.9-7 9.8-14.7 2.1-5.6-.2-21.7-13.4-31.6l-3.5 26.2c-.1.8-.6 1.5-1.2 2-.5.4-1.2.6-1.8.6h-.5l-7.8-1.3c-.8-.1-1.6-.6-2.1-1.4s-.6-1.6-.4-2.4l6.3-29.5c-2.3-.8-4.7-1.4-7.4-1.8-27-4.4-60.8 25.4-55 61.2 4.3 26.9 22.8 42.6 45.5 47.3 20.7 4.2 46.6-4.4 57.5-32.5.6-1.3.9-2.6.9-4.1v-.1c0-5.2-5.3-9.5-10.3-8zm-37.9-24.9c0-.6.3-1.2.8-1.6s1.1-.6 1.8-.5l8 1.4c.6.1 1.2.5 1.5 1 .3.5.4 1.2.2 1.8l-1.7 5.1c-.3.8-1.1 1.4-1.9 1.4h-.3l-6.9-1.2c-1-.2-1.7-1.1-1.7-2.1l.2-5.3zm-14.3-26.7c4.6 0 8.4 3.8 8.4 8.4s-3.8 8.4-8.4 8.4c-4.6 0-8.4-3.8-8.4-8.4s3.7-8.4 8.4-8.4zm-26.3 50.5c-4.6 0-8.4-3.8-8.4-8.4s3.8-8.4 8.4-8.4c4.6 0 8.4 3.8 8.4 8.4s-3.8 8.4-8.4 8.4zm9.4 18.6c-4.6 0-8.4-3.8-8.4-8.4 0-4.6 3.8-8.4 8.4-8.4 4.6 0 8.4 3.8 8.4 8.4 0 4.6-3.8 8.4-8.4 8.4zm0-37.2c-4.6 0-8.4-3.8-8.4-8.4 0-4.6 3.8-8.4 8.4-8.4 4.6 0 8.4 3.8 8.4 8.4s-3.8 8.4-8.4 8.4zm16.9 54.2c-4.6 0-8.4-3.8-8.4-8.4 0-4.6 3.8-8.4 8.4-8.4 4.6 0 8.4 3.8 8.4 8.4 0 4.7-3.8 8.4-8.4 8.4zm27.1-37.4c-2.4 8.7-15 17-18.7 18.5-.3.1-.6.2-.9.2-.3 0-.6-.1-.8-.3-.8-.7-.4-2.5.5-5.7 1-3.5 2.2-7.8.8-9.9-1.5-2.3-2-5.1-1.4-7.8s2.2-5 4.6-6.5c4.6-2.9 10.6-1.6 14.2 3.1 2 2.5 2.6 5.3 1.7 8.4z" class="st3"/></svg>